<svg width="51" height="18" viewBox="0 0 51 18" fill="none" xmlns="http://www.w3.org/2000/svg">
<path d="M0.917614 18V0.545454H7.30966C8.5483 0.545454 9.57386 0.75 10.3864 1.15909C11.1989 1.5625 11.8068 2.1108 12.2102 2.80398C12.6136 3.49148 12.8153 4.26705 12.8153 5.13068C12.8153 5.85795 12.6818 6.47159 12.4148 6.97159C12.1477 7.46591 11.7898 7.86364 11.3409 8.16477C10.8977 8.46023 10.4091 8.67614 9.875 8.8125V8.98295C10.4545 9.01136 11.0199 9.19886 11.571 9.54545C12.1278 9.88636 12.5881 10.3722 12.9517 11.0028C13.3153 11.6335 13.4972 12.4006 13.4972 13.304C13.4972 14.196 13.2869 14.9972 12.8665 15.7074C12.4517 16.4119 11.8097 16.9716 10.9403 17.3864C10.071 17.7955 8.96023 18 7.60795 18H0.917614ZM3.55114 15.7415H7.35227C8.61364 15.7415 9.51705 15.4972 10.0625 15.0085C10.608 14.5199 10.8807 13.9091 10.8807 13.1761C10.8807 12.625 10.7415 12.1193 10.4631 11.6591C10.1847 11.1989 9.78693 10.8324 9.26989 10.5597C8.75852 10.2869 8.15057 10.1506 7.44602 10.1506H3.55114V15.7415ZM3.55114 8.09659H7.07955C7.67045 8.09659 8.2017 7.98295 8.6733 7.75568C9.15057 7.52841 9.52841 7.21023 9.80682 6.80114C10.0909 6.38636 10.233 5.89773 10.233 5.33523C10.233 4.61364 9.98011 4.00852 9.47443 3.51989C8.96875 3.03125 8.19318 2.78693 7.14773 2.78693H3.55114V8.09659ZM20.0384 18L15.1974 0.545454H17.9673L21.3679 14.0625H21.5298L25.0668 0.545454H27.8111L31.348 14.071H31.5099L34.902 0.545454H37.6804L32.831 18H30.1804L26.5071 4.92614H26.3707L22.6974 18H20.0384ZM40.0817 18V0.545454H50.9055V2.8125H42.7152V8.13068H50.13V10.3892H42.7152V18H40.0817Z" fill="black"/>
</svg>
